<svg width="1368" height="1368" viewBox="0 0 1368 1368" fill="none" xmlns="http://www.w3.org/2000/svg">
<g clip-path="url(#clip0_201_2)">
<path d="M562.554 193.429C552.161 206.069 566.725 154.313 408.649 736.938C319.263 1065.86 324.214 1042.65 339.408 1065.51C344.306 1072.85 349.894 1078.69 355.155 1082.06C364.093 1087.96 449.282 1112.2 459.471 1111.84C468.279 1111.4 474.218 1105.99 481.73 1091.04C501.629 1052.34 534.993 1033.53 575.108 1038.67C606.481 1042.45 633.029 1061.62 646.405 1090.16C653.574 1105.26 656.251 1119.86 654.836 1137.71C653.622 1153.22 654.717 1158.56 660.201 1164.24C665.426 1169.85 752.71 1193.09 767.202 1192.91C777.062 1192.75 779.997 1191.71 792.442 1184.53C805.051 1177.25 807.252 1175.32 812.456 1166.33C819.598 1153.8 1037.85 342.943 1037.94 327.405C1038.02 318.735 1037.06 315.536 1030.45 304.087C1024.32 293.469 1021.1 289.81 1014.5 285.654C1005.39 279.848 919.944 255.546 910.01 255.981C901.367 256.33 895.09 261.939 888.532 275.46C873.443 305.626 845.927 324.607 813.13 327.18C806.646 327.829 794.121 326.435 785.253 324.476C741.736 314.221 712.92 275.79 715.186 230.696C716.06 213.829 713.633 206.166 706.222 201.369C697.573 195.97 611.676 174.352 600.999 174.997C588.94 175.551 569.602 184.937 562.554 193.429ZM602.246 214.299C604.813 214.145 622.283 217.984 640.861 222.962L675.04 231.981L676.051 245.992C679.012 286.741 701.769 324.236 737.547 347.147C756.816 359.462 789.762 367.865 813.075 366.125C837.341 364.494 850.749 360.517 870.745 349.192C889.65 338.277 901.452 327.699 914.039 310.039L922.25 298.221L954.952 306.983C990.961 316.493 997.123 319.125 998.247 326.432C998.66 329.068 989.887 364.432 978.859 405.071C963.296 463.154 958.242 478.901 955.58 478.891C953.775 478.824 949.311 480.293 945.83 482.303C934.052 489.103 933.753 506.965 945.161 514.085C948.644 516.277 941.638 543.982 864.67 831.23C806.069 1049.93 779.042 1147.14 776.443 1149.52C770.34 1155.03 763.091 1154.35 727.944 1144.79L695.501 1136.1L694.805 1123.01C693.621 1101.8 687.667 1082.69 676.557 1063.45C664.997 1043.81 655.184 1033.33 636.054 1020.49C611.209 1003.88 584.876 996.972 553.957 999.339C531.492 1001.03 517.76 1005.2 498.517 1016.31C481.768 1025.98 469.679 1037.6 456.629 1055.98L447.235 1069.59L414.533 1060.83C378.883 1051.56 372.432 1048.43 369.91 1040.6C368.662 1036.9 392.881 944.407 453.459 721.471C521.015 471.942 539.285 407.446 542.176 407.094C544.05 406.901 548.509 405.423 552.021 403.846C560.893 400.052 564.706 387.897 559.631 379.107C557.716 375.79 554.749 372.191 552.971 371.012C550.306 369.456 553.051 356.59 569.548 295.543C580.506 255.164 590.382 220.929 591.422 219.671C594.532 215.877 597.291 214.516 602.246 214.299Z" fill="#051851"/>
<path d="M600.053 403.539C598.094 412.407 601.006 419.351 608.772 424.382C614.206 427.653 645.429 436.173 654.821 436.72C663.521 437.229 670.497 432.092 673.313 423.169C675.161 416.79 674.912 414.059 671.562 408.257C667.637 401.458 666.395 400.847 641.807 394.259C617.218 387.67 615.837 387.579 609.039 391.504C603.223 394.85 601.641 397.091 600.053 403.539Z" fill="#051851"/>
<path d="M712.869 433.483C710.556 442.116 713.13 449.255 720.277 453.974C726.001 457.748 760.888 467.235 767.827 466.993C783.41 466.403 791.7 451.663 784.04 438.395C780.115 431.597 778.709 431.081 754.285 424.397C730.216 417.948 728.151 417.812 721.846 421.452C716.373 424.612 714.463 427.043 712.869 433.483Z" fill="#051851"/>
<path d="M827.265 458.103C822.07 465.964 824.744 479.015 832.769 484.116C838.484 487.895 873.381 497.377 880.311 497.14C894.607 496.623 903.485 484.419 898.916 471.145C896.221 463.417 889.934 460.188 863.895 453.767C844.045 448.866 839.812 448.434 835.265 451.279C832.277 453.004 828.774 456.135 827.265 458.103Z" fill="#051851"/>
</g>
<defs>
<clipPath id="clip0_201_2">
<rect width="1000" height="1000" fill="white" transform="translate(0.987305 500.987) rotate(-30)"/>
</clipPath>
</defs>
</svg>
