<svg width="60" height="60" viewBox="0 0 800 800" fill="none" stroke-width="30" stroke="#051851" xmlns="http://www.w3.org/2000/svg">
<path d="M735.513 181.537C733.261 185.887 730.497 189.981 726.966 193.513C702.501 217.977 655.671 210.812 622.404 177.545C589.137 144.277 581.972 97.4474 606.436 72.9832C609.967 69.4517 614.011 66.6368 618.361 64.4361L553.874 0L458.781 95.1443L482.579 118.943L467.788 133.734L443.989 109.935L0.0511475 553.925L62.7983 616.723C87.3136 592.208 134.092 599.322 167.36 632.64C200.627 665.959 207.792 712.686 183.328 737.202L246.075 800L799.949 246.024L735.513 181.537ZM540.823 206.666L504.331 170.175L519.071 155.384L555.563 191.875L540.823 206.666ZM613.806 279.649L577.314 243.158L592.054 228.418L628.597 264.909L613.806 279.649ZM686.84 352.684L650.297 316.192L665.089 301.452L701.58 337.944L686.84 352.684Z" fill="#E6E600"/>
</svg>
