<svg width="980" height="976" viewBox="0 0 980 976" fill="none" xmlns="http://www.w3.org/2000/svg">
<path d="M630.112 2.43143C614.792 8.18143 653.282 -29.3586 225.072 396.171C-16.7983 636.331 -0.908292 618.711 0.821708 646.101C1.39171 654.911 3.31171 662.761 6.18171 668.311C10.9717 677.891 72.6317 741.471 81.6317 746.261C89.4817 750.281 97.3317 748.561 111.312 739.371C147.892 715.811 186.192 716.201 218.362 740.711C243.642 759.671 257.052 789.541 254.362 820.951C253.022 837.611 248.042 851.591 237.892 866.341C229.082 879.171 227.362 884.341 229.272 892.001C230.992 899.471 294.962 963.241 307.602 970.331C316.222 975.121 319.282 975.691 333.652 975.691C348.212 975.691 351.082 975.121 360.082 969.941C372.532 962.661 966.972 369.561 974.822 356.151C979.222 348.681 979.992 345.431 979.992 332.211C979.992 319.951 979.032 315.171 975.392 308.271C970.412 298.691 908.562 234.921 899.742 230.331C892.082 226.311 883.842 228.031 871.402 236.461C843.252 255.041 809.932 257.721 780.242 243.551C774.302 240.871 764.152 233.401 757.452 227.271C724.892 196.631 719.152 148.941 743.662 111.021C752.852 96.8514 754.582 89.0014 750.562 81.1414C745.772 72.1414 682.192 10.4714 672.622 5.69139C661.902 0.141394 640.462 -1.39857 630.112 2.43143ZM654.052 40.3514C656.352 41.5014 669.562 53.5614 683.162 67.1614L708.252 92.0614L702.122 104.701C684.312 141.471 685.272 185.321 704.802 223.051C715.332 243.351 739.662 267.101 760.722 277.251C782.552 287.971 796.152 291.231 819.132 291.421C840.962 291.421 856.472 288.161 876.202 279.161L889.222 273.031L913.162 296.971C939.592 323.211 943.612 328.571 940.932 335.461C939.972 337.951 914.692 364.191 884.822 393.871C842.302 436.391 830.052 447.501 827.752 446.161C826.222 445.201 821.622 444.241 817.602 444.241C804.002 444.241 794.812 459.561 801.132 471.431C803.052 475.071 783.132 495.561 572.852 705.841C412.752 865.941 340.742 936.611 337.302 937.371C329.262 939.091 323.322 934.881 297.662 909.031L273.912 885.281L279.852 873.601C289.432 854.641 293.832 835.111 293.832 812.891C293.642 790.101 290.382 776.121 280.232 755.441C267.022 728.631 247.672 709.481 219.712 696.071C199.412 686.301 185.432 683.051 163.212 683.051C143.872 683.051 127.592 687.071 107.102 696.461L92.1617 703.551L68.2217 679.611C41.9817 653.761 37.9617 647.821 39.6917 639.781C40.4617 635.951 107.682 567.961 271.612 405.181C454.882 222.861 502.952 176.141 505.632 177.281C507.352 178.051 511.952 179.001 515.782 179.391C525.362 180.541 534.742 171.921 534.742 161.771C534.742 157.941 533.972 153.341 533.022 151.431C531.492 148.751 540.302 138.981 585.112 94.3614C614.792 64.8714 640.462 40.1614 641.992 39.5914C646.582 37.8614 649.652 38.0614 654.052 40.3514Z" fill="#051851"/>
<path d="M557.532 203.141C551.402 209.841 550.452 217.311 554.662 225.551C557.732 231.101 580.512 254.091 588.372 259.261C595.652 264.051 604.262 263.091 611.162 256.771C615.952 252.171 617.102 249.681 617.102 242.981C617.102 235.131 616.332 233.981 598.332 215.981C580.332 197.981 579.182 197.211 571.332 197.211C564.622 197.201 562.132 198.351 557.532 203.141Z" fill="#051851"/>
<path d="M640.262 285.481C633.942 291.801 632.602 299.271 636.432 306.931C639.502 313.061 664.972 338.721 671.102 341.981C684.892 349.261 699.442 340.641 699.442 325.321C699.442 317.471 698.482 316.321 680.672 298.321C663.052 280.701 661.332 279.551 654.052 279.551C647.732 279.551 644.862 280.701 640.262 285.481Z" fill="#051851"/>
<path d="M727.022 364.001C718.592 368.211 714.382 380.851 718.782 389.281C721.842 395.411 747.322 421.071 753.442 424.331C766.082 431.031 779.872 424.901 782.552 411.121C784.082 403.081 780.252 397.141 760.912 378.561C746.172 364.391 742.722 361.901 737.362 362.091C733.912 362.091 729.312 363.051 727.022 364.001Z" fill="#051851"/>
</svg>
